<?xml version="1.0" encoding="UTF-8"?>
<svg version="1.1" xmlns="http://www.w3.org/2000/svg" width="512" height="512">
<path d="M0 0 C2.25866771 -0.00436177 4.51536056 -0.04068314 6.77368164 -0.07861328 C15.67556865 -0.14981605 22.20709798 0.20285895 29.20532227 6.33544922 C29.74415039 6.98642578 30.28297852 7.63740234 30.83813477 8.30810547 C31.39243164 8.95650391 31.94672852 9.60490234 32.51782227 10.27294922 C35.39856092 14.45391316 36.19712016 18.38647961 36.77563477 23.37060547 C37.53898519 28.47728658 37.53898519 28.47728658 40.46313477 32.55810547 C43.83042974 34.99939433 45.49146139 35.49190011 49.58422852 35.54638672 C73.02840488 36.06601522 73.02840488 36.06601522 80.31860352 42.42529297 C86.02734631 48.42705088 88.05466266 53.09877173 87.96313477 61.37060547 C89.65323166 61.36061272 89.65323166 61.36061272 91.37747192 61.35041809 C102.00062873 61.28957867 112.62375014 61.24461917 123.2470417 61.21516895 C128.70846956 61.19951927 134.16975666 61.17829351 139.63110352 61.14428711 C144.9025193 61.11166911 150.17379977 61.0937472 155.44530869 61.08597374 C157.45553594 61.08043464 159.46575586 61.06961813 161.47592545 61.0534153 C164.29360149 61.03160877 167.11071981 61.02863991 169.9284668 61.0300293 C170.75781235 61.01924347 171.5871579 61.00845764 172.44163513 60.99734497 C177.36262463 61.02356694 180.69401132 61.66148378 184.96313477 64.37060547 C191.60928785 71.16780749 192.26098894 77.35554352 192.28198242 86.41503906 C192.29202805 87.41077942 192.30207367 88.40651978 192.31242371 89.43243408 C192.34322117 92.71129805 192.36028147 95.99008047 192.37719727 99.26904297 C192.39591165 101.54733988 192.41548527 103.82562989 192.43588257 106.10391235 C192.487181 112.09120609 192.52681912 118.07852229 192.56402588 124.06591797 C192.60407976 130.17925565 192.65516583 136.29250005 192.70532227 142.40576172 C192.80205453 154.39397742 192.88646808 166.38224582 192.96313477 178.37060547 C194.08896973 176.93515381 194.08896973 176.93515381 195.23754883 175.47070312 C196.2345998 174.20034289 197.23167119 172.92999869 198.22875977 171.65966797 C198.7219873 171.03068604 199.21521484 170.4017041 199.72338867 169.75366211 C211.90828061 154.23363752 211.90828061 154.23363752 220.40063477 151.62060547 C228.20308249 150.85939106 234.05646391 151.36608621 240.96313477 155.37060547 C246.74357251 160.26341045 250.18941289 166.04159603 251.27563477 173.52294922 C251.94863206 185.48968232 244.90076829 193.24890234 237.44213867 201.66308594 C235.05271352 204.42169266 232.82202277 207.29819401 230.58813477 210.18310547 C226.6088271 215.29802926 222.56199005 220.35097098 218.46313477 225.37060547 C210.29324834 235.36064584 210.29324834 235.36064584 202.4317503 245.59301949 C200.96313477 247.37060547 200.96313477 247.37060547 198.97996998 249.08762932 C193.1709506 254.71190467 192.19884264 259.88407273 191.98332214 267.63064575 C191.92248673 271.89213793 191.96258698 276.14870716 192.01074219 280.41015625 C192.00804541 282.76315961 192.00178783 285.11616116 191.99224854 287.46914673 C191.97941212 292.52323406 191.99172413 297.57640522 192.02379417 302.63040543 C192.07015344 309.94596801 192.07172089 317.26105649 192.06022695 324.57670723 C192.04255123 336.45946077 192.05821826 348.34191475 192.09716797 360.22460938 C192.13480852 371.74218822 192.16420856 383.25970825 192.17724609 394.77734375 C192.1780571 395.48707223 192.1788681 396.19680071 192.17970368 396.92803611 C192.18818329 404.681435 192.19267893 412.43482697 192.19178486 420.18823051 C192.19171075 420.87020835 192.19163665 421.55218619 192.1915603 422.25483003 C192.1911929 424.9815565 192.19075522 427.70828278 192.18977908 430.43500911 C192.18675858 439.05321049 192.20203371 447.67114818 192.23671854 456.28928781 C192.25418274 461.23030442 192.25972519 466.17128692 192.26251221 471.11233139 C192.2664908 473.40205153 192.27567188 475.69176948 192.29046059 477.98144531 C192.31007195 481.10929241 192.31122879 484.23663759 192.30802917 487.36453247 C192.31833371 488.26823613 192.32863824 489.1719398 192.33925503 490.10302842 C192.30174182 497.11787181 191.19638627 502.73651395 186.52563477 508.24560547 C182.25943734 511.78342773 179.50487084 512.62057663 173.94633007 512.62787437 C172.70607734 512.63432327 171.46582461 512.64077216 170.18798846 512.64741647 C168.80934114 512.64447411 167.43069422 512.64133866 166.05204773 512.63803101 C164.58927784 512.64176655 163.12650994 512.64636769 161.66374522 512.65176165 C157.63871539 512.66401902 153.6137685 512.66372797 149.58872426 512.6613729 C145.24982041 512.66096542 140.9109434 512.67199729 136.572052 512.68148804 C128.06915852 512.69811414 119.56629276 512.70359832 111.06338438 512.70471279 C104.1527799 512.70566253 97.2421846 512.7097691 90.33158302 512.71611404 C70.74584802 512.73373106 51.16013496 512.74295223 31.57439198 512.7414531 C30.51810923 512.74137318 29.46182648 512.74129327 28.37353516 512.74121094 C27.31596509 512.74112918 26.25839503 512.74104741 25.16877738 512.74096318 C8.02772798 512.7401502 -9.11323355 512.75928948 -26.25425754 512.78748767 C-43.84758731 512.81620193 -61.44087422 512.83002876 -79.03422803 512.82830012 C-88.91434417 512.8276357 -98.79436821 512.83315067 -108.67446327 512.85465622 C-117.08657784 512.87284886 -125.49855857 512.87723117 -133.91068427 512.86363737 C-138.20321279 512.85709793 -142.49548442 512.85702554 -146.78798866 512.87434387 C-150.71803444 512.89003684 -154.64761881 512.88724997 -158.57765307 512.86977561 C-159.99891583 512.86669734 -161.4202127 512.87036926 -162.84143523 512.88149576 C-176.16018322 512.97885487 -176.16018322 512.97885487 -182.03686523 508.37060547 C-186.25364552 502.93317826 -187.16172325 499.16225784 -187.168293 492.38083935 C-187.17137195 491.30200519 -187.17137195 491.30200519 -187.1745131 490.20137641 C-187.18020223 487.77275836 -187.1787235 485.34419669 -187.17730713 482.91557312 C-187.17988967 481.16421929 -187.18290251 479.41286605 -187.18631053 477.66151363 C-187.19439682 472.83420354 -187.19617101 468.00690831 -187.196908 463.17959225 C-187.19875571 457.97906857 -187.20630159 452.77855266 -187.21304321 447.57803345 C-187.22663835 436.20007298 -187.23265301 424.82211602 -187.23705387 413.44414878 C-187.23981415 406.34351575 -187.24405109 399.24288408 -187.24855804 392.14225197 C-187.26075196 372.4934113 -187.27105122 352.84457172 -187.27443314 333.19572735 C-187.2746527 331.9376073 -187.27487227 330.67948725 -187.27509849 329.38324236 C-187.27531677 328.12206652 -187.27553504 326.86089068 -187.27575994 325.56149739 C-187.27620341 323.00576063 -187.27664997 320.45002387 -187.27709961 317.89428711 C-187.27732104 316.6265462 -187.27754247 315.35880529 -187.27777061 314.05264799 C-187.28172003 293.50302139 -187.29917789 272.95343022 -187.32245913 252.40381732 C-187.34615345 231.31992059 -187.3586341 210.23604165 -187.35980105 189.15213138 C-187.36071887 177.30858705 -187.36649788 165.46508888 -187.38462067 153.62155724 C-187.39999572 143.53799213 -187.40515747 133.45448746 -187.39688256 123.37091287 C-187.39296692 118.22390091 -187.39395014 113.07701075 -187.40793991 107.93001366 C-187.42062402 103.2204216 -187.41952985 98.51104354 -187.4073492 93.80145202 C-187.40538265 92.09552226 -187.40851455 90.38957763 -187.41719356 88.68366881 C-187.42823041 86.36814945 -187.42083781 84.05339276 -187.40880203 81.73789501 C-187.40939912 80.45075043 -187.40999621 79.16360585 -187.41061139 77.83745688 C-186.82455662 72.40124091 -184.76442512 68.49763335 -180.53686523 65.05810547 C-179.65514648 64.32140625 -179.65514648 64.32140625 -178.75561523 63.56982422 C-174.66470795 60.71548664 -170.19940162 61.23645985 -165.43457031 61.25708008 C-164.11718117 61.25686104 -164.11718117 61.25686104 -162.7731781 61.25663757 C-159.86755918 61.25733475 -156.96200422 61.26511808 -154.05639648 61.27294922 C-152.04286229 61.27481409 -150.02932765 61.27623767 -148.01579285 61.27723694 C-142.71394602 61.28105667 -137.41212654 61.29088235 -132.11029053 61.30194092 C-126.70105357 61.3121667 -121.2918122 61.31673706 -115.88256836 61.32177734 C-105.26732196 61.33250508 -94.65209587 61.34957501 -84.03686523 61.37060547 C-83.91206787 60.68643555 -83.78727051 60.00226562 -83.65869141 59.29736328 C-83.40309448 57.94916504 -83.40309448 57.94916504 -83.14233398 56.57373047 C-82.89326294 55.23810059 -82.89326294 55.23810059 -82.63916016 53.87548828 C-81.09154676 47.43912288 -76.327213 43.00193943 -71.03686523 39.37060547 C-63.53497953 35.84888952 -55.98427726 35.91911465 -47.85717773 35.84326172 C-40.91717552 35.77629086 -40.91717552 35.77629086 -35.03686523 32.37060547 C-32.91900988 29.30201009 -32.65512256 26.27494238 -32.22436523 22.62060547 C-30.88475312 14.15013503 -27.3564223 9.06494847 -20.88061523 3.59716797 C-14.46489667 -0.67091599 -7.39988266 -0.00160049 0 0 Z " fill="#F6EFEF" transform="translate(224.036865234375,-0.37060546875)"/>
<path d="M0 0 C1.07314453 0.00322266 2.14628906 0.00644531 3.25195312 0.00976562 C4.37150391 0.01814453 5.49105469 0.02652344 6.64453125 0.03515625 C8.34125977 0.04192383 8.34125977 0.04192383 10.07226562 0.04882812 C12.86724052 0.06062127 15.66210945 0.07707975 18.45703125 0.09765625 C18.45762834 0.94388176 18.45822543 1.79010727 18.45884061 2.66197598 C18.4947163 52.79014081 18.55132715 102.91824555 18.6349522 153.04635466 C18.64496994 159.06215286 18.65481402 165.07795134 18.66455078 171.09375 C18.66649215 172.29141266 18.66843353 173.48907532 18.67043373 174.72303079 C18.70147463 194.12825378 18.71844021 213.53346494 18.73022547 232.93870808 C18.7426262 252.8428093 18.77010322 272.74684831 18.81164432 292.65091026 C18.83681057 304.93777559 18.85014625 317.22453777 18.84846082 329.51142924 C18.84843112 337.93124633 18.86301456 346.35095817 18.88919553 354.77073427 C18.90387716 359.63218304 18.91201395 364.49341595 18.90283394 369.35488319 C18.89457492 373.80378021 18.90462469 378.25224266 18.92936787 382.70107506 C18.93507321 384.3121979 18.93400263 385.92336163 18.9255437 387.53447236 C18.91503853 389.72243915 18.929058 391.90893554 18.94922256 394.09680367 C18.95074145 395.31266816 18.95226033 396.52853266 18.95382524 397.78124154 C19.55964592 401.77394549 20.9573184 403.96302085 23.45703125 407.09765625 C25.90594498 408.32211312 27.5143574 408.23586218 30.25320435 408.25587463 C31.77187607 408.27055786 31.77187607 408.27055786 33.32122803 408.28553772 C34.4361261 408.29129318 35.55102417 408.29704865 36.69970703 408.30297852 C37.87042755 408.31287811 39.04114807 408.32277771 40.24734497 408.33297729 C43.46198717 408.35919733 46.67662399 408.38104607 49.89131021 408.40097928 C53.24925331 408.42282512 56.60715094 408.45022065 59.96505737 408.47703552 C66.32567363 408.52698141 72.68631511 408.57191319 79.04698074 408.61505789 C86.28754809 408.66441408 93.52806983 408.71933819 100.76859307 408.77473748 C115.66469663 408.88858663 130.56084313 408.99541926 145.45703125 409.09765625 C145.87400772 407.77572769 145.87400772 407.77572769 146.29940796 406.42709351 C147.34865166 403.40936651 148.5465184 400.67716163 149.97900391 397.82666016 C150.47937164 396.82607574 150.97973938 395.82549133 151.49526978 394.79458618 C152.03179169 393.73186493 152.5683136 392.66914368 153.12109375 391.57421875 C153.67316498 390.47290619 154.22523621 389.37159363 154.79403687 388.23690796 C156.55294619 384.73025728 158.3174074 381.22643416 160.08203125 377.72265625 C161.27816279 375.3415561 162.47302748 372.95982301 163.66796875 370.578125 C166.59344865 364.74918076 169.52348814 358.92254629 172.45703125 353.09765625 C175.76156988 355.26705912 179.00087365 357.4286024 182.05078125 359.9453125 C182.68226074 360.46303223 183.31374023 360.98075195 183.96435547 361.51416016 C184.62193848 362.05733887 185.27952148 362.60051758 185.95703125 363.16015625 C191.93452227 368.06809387 197.96452092 372.89260901 204.11523438 377.58227539 C206.76400745 379.63051851 208.5791682 381.28086168 210.45703125 384.09765625 C206.79347313 387.10146344 203.12597692 390.10043404 199.45703125 393.09765625 C198.78285156 393.64873047 198.10867187 394.19980469 197.4140625 394.76757812 C195.26292825 396.5249255 193.11015295 398.28024472 190.95703125 400.03515625 C189.91579102 400.88630005 189.91579102 400.88630005 188.85351562 401.75463867 C188.19673828 402.28935791 187.53996094 402.82407715 186.86328125 403.375 C186.27869141 403.85187256 185.69410156 404.32874512 185.09179688 404.82006836 C183.60088974 405.9852292 182.03143308 407.04805503 180.45703125 408.09765625 C197.9897531 408.1443614 215.52245556 408.1796378 233.05522537 408.20128059 C241.19585499 408.21159648 249.33644596 408.22566277 257.47705078 408.24853516 C264.57177689 408.26845948 271.66647502 408.28137042 278.76122832 408.28583324 C282.51840792 408.28844225 286.27550747 408.29458101 290.03266144 408.30911636 C294.22526106 408.32520501 298.41772119 408.32563655 302.61035156 408.32470703 C303.85832016 408.33189758 305.10628876 408.33908813 306.39207458 408.34649658 C308.10418877 408.34237259 308.10418877 408.34237259 309.85089111 408.33816528 C310.84274036 408.34000887 311.83458961 408.34185246 312.8564949 408.34375191 C315.61983895 408.08224933 317.18327858 407.67997706 319.45703125 406.09765625 C321.84159322 402.77575217 321.69190731 399.67251987 321.66148376 395.67459106 C321.65951494 395.03176646 321.65754612 394.38894186 321.65551764 393.72663772 C321.64677122 391.5742714 321.62389287 389.42228178 321.60131836 387.27001953 C321.59260717 385.7256676 321.58493242 384.18130953 321.57821655 382.63694763 C321.56260216 379.31008453 321.54173882 375.98330884 321.51746941 372.65649796 C321.48117774 367.38475172 321.46965073 362.11313595 321.46400452 356.84127808 C321.46293998 355.95048683 321.46187545 355.05969559 321.46077865 354.14191067 C321.45863917 352.32011292 321.45655219 350.49831511 321.45451653 348.67651725 C321.43968104 336.40609964 321.40829348 324.13626833 321.30981445 311.86621094 C321.24355228 303.58675221 321.21673459 295.30817173 321.23436552 287.02845371 C321.2421126 282.65207239 321.2302384 278.27778372 321.16993523 273.90176773 C321.11335764 269.77549324 321.10916919 265.65231162 321.14303207 261.52581978 C321.14639648 260.02226294 321.13137961 258.51851834 321.09531212 257.0153904 C320.81127988 244.45035921 325.23015439 237.98718476 333.45703125 229.09765625 C334.64657984 227.64947276 335.827666 226.1941295 336.98828125 224.72265625 C337.97680688 223.51345747 338.96636545 222.30510227 339.95703125 221.09765625 C343.2191305 217.11020923 346.46188983 213.1126856 349.62109375 209.04296875 C350.37036133 208.07810547 350.37036133 208.07810547 351.13476562 207.09375 C352.07502857 205.87813341 353.01145597 204.65953689 353.94335938 203.4375 C355.99090698 200.78921262 357.64093138 198.97505616 360.45703125 197.09765625 C360.52549221 227.40865235 360.57857225 257.71964045 360.61022724 288.03069621 C360.61397929 291.61047078 360.61786226 295.19024519 360.62182617 298.77001953 C360.6226131 299.48267798 360.62340003 300.19533643 360.62421081 300.92959058 C360.63725914 312.46372638 360.66090981 323.99781724 360.68848964 335.53192639 C360.71655981 347.36997213 360.73321092 359.20799436 360.73929673 371.04607201 C360.74304108 377.69408295 360.75240822 384.34201035 360.77422142 390.98999023 C360.79458751 397.24764803 360.80086472 403.50516202 360.79635429 409.76284981 C360.79717943 412.05900415 360.80314422 414.35516331 360.81464767 416.65128899 C360.82959339 419.78845419 360.82597694 422.92507788 360.8177948 426.06225586 C360.82653332 426.96888977 360.83527185 427.87552368 360.84427518 428.80963135 C360.79485421 435.82967045 359.69401691 441.45916034 355.01953125 446.97265625 C350.75333382 450.51047851 347.99876732 451.34762741 342.44022655 451.35492516 C341.19997382 451.36137405 339.95972109 451.36782294 338.68188494 451.37446725 C337.30323762 451.37152489 335.92459071 451.36838944 334.54594421 451.36508179 C333.08317432 451.36881733 331.62040643 451.37341847 330.15764171 451.37881243 C326.13261188 451.39106981 322.10766499 451.39077875 318.08262074 451.38842368 C313.74371689 451.3880162 309.40483989 451.39904807 305.06594849 451.40853882 C296.563055 451.42516492 288.06018924 451.4306491 279.55728086 451.43176357 C272.64667639 451.43271331 265.73608108 451.43681988 258.82547951 451.44316483 C239.23974451 451.46078184 219.65403145 451.47000301 200.06828847 451.46850388 C199.01200571 451.46842397 197.95572296 451.46834405 196.86743164 451.46826172 C195.80986158 451.46817996 194.75229151 451.4680982 193.66267387 451.46801396 C176.52162447 451.46720099 159.38066293 451.48634026 142.23963895 451.51453845 C124.64630917 451.54325271 107.05302227 451.55707954 89.45966846 451.5553509 C79.57955232 451.55468648 69.69952827 451.56020145 59.81943321 451.581707 C51.40731865 451.59989965 42.99533792 451.60428195 34.58321222 451.59068815 C30.29068369 451.58414871 25.99841206 451.58407632 21.70590782 451.60139465 C17.77586205 451.61708762 13.84627767 451.61430075 9.91624341 451.59682639 C8.49498066 451.59374812 7.07368379 451.59742004 5.65246125 451.60854654 C-7.66628673 451.70590565 -7.66628673 451.70590565 -13.54296875 447.09765625 C-17.75974903 441.66022904 -18.66782676 437.88930862 -18.67439651 431.10789013 C-18.67747547 430.02905597 -18.67747547 430.02905597 -18.68061662 428.92842719 C-18.68630574 426.49980914 -18.68482702 424.07124747 -18.68341064 421.6426239 C-18.68599318 419.89127007 -18.68900603 418.13991683 -18.69241405 416.38856441 C-18.70050033 411.56125432 -18.70227452 406.73395909 -18.70301151 401.90664303 C-18.70485923 396.70611935 -18.71240511 391.50560344 -18.71914673 386.30508423 C-18.73274186 374.92712376 -18.73875653 363.5491668 -18.74315739 352.17119956 C-18.74591766 345.07056653 -18.75015461 337.96993486 -18.75466156 330.86930275 C-18.76685548 311.22046208 -18.77715474 291.5716225 -18.78053665 271.92277813 C-18.78075622 270.66465808 -18.78097578 269.40653804 -18.781202 268.11029314 C-18.78142028 266.8491173 -18.78163856 265.58794146 -18.78186345 264.28854817 C-18.78230692 261.73281141 -18.78275348 259.17707465 -18.78320312 256.62133789 C-18.78342455 255.35359698 -18.78364598 254.08585607 -18.78387412 252.77969877 C-18.78782354 232.23007217 -18.8052814 211.680481 -18.82856265 191.1308681 C-18.85225696 170.04697137 -18.86473762 148.96309243 -18.86590457 127.87918216 C-18.86682238 116.03563783 -18.87260139 104.19213966 -18.89072418 92.34860802 C-18.90609923 82.26504292 -18.91126099 72.18153824 -18.90298608 62.09796365 C-18.89907044 56.9509517 -18.90005366 51.80406153 -18.91404343 46.65706444 C-18.92672754 41.94747238 -18.92563336 37.23809433 -18.91345271 32.5285028 C-18.91148616 30.82257304 -18.91461807 29.11662841 -18.92329708 27.4107196 C-18.93433393 25.09520023 -18.92694133 22.78044354 -18.91490555 20.46494579 C-18.91550264 19.17780121 -18.91609972 17.89065663 -18.91671491 16.56450766 C-18.33066013 11.1282917 -16.27052863 7.22468414 -12.04296875 3.78515625 C-11.45515625 3.29402344 -10.86734375 2.80289063 -10.26171875 2.296875 C-6.91688379 -0.03690757 -3.94269397 -0.02086081 0 0 Z " fill="#0E80AC" transform="translate(55.54296875,60.90234375)"/>
<path d="M0 0 C4.04152915 -0.08746928 8.08281305 -0.14054982 12.125 -0.1875 C13.26710938 -0.21263672 14.40921875 -0.23777344 15.5859375 -0.26367188 C26.22532145 -0.3564572 26.22532145 -0.3564572 31 3 C37.64615309 9.79720202 38.29785417 15.98493806 38.31884766 25.04443359 C38.33391609 26.53804413 38.33391609 26.53804413 38.34928894 28.06182861 C38.3800864 31.34069258 38.3971467 34.619475 38.4140625 37.8984375 C38.43277689 40.17673441 38.4523505 42.45502442 38.4727478 44.73330688 C38.52404624 50.72060062 38.56368435 56.70791682 38.60089111 62.6953125 C38.64094499 68.80865018 38.69203106 74.92189459 38.7421875 81.03515625 C38.83891977 93.02337196 38.92333331 105.01164036 39 117 C40.12583496 115.56454834 40.12583496 115.56454834 41.27441406 114.10009766 C42.27146503 112.82973742 43.26853642 111.55939322 44.265625 110.2890625 C45.00546631 109.3455896 45.00546631 109.3455896 45.76025391 108.38305664 C57.94514585 92.86303205 57.94514585 92.86303205 66.4375 90.25 C74.23994772 89.48878559 80.09332914 89.99548074 87 94 C92.78043774 98.89280498 96.22627812 104.67099056 97.3125 112.15234375 C97.98549729 124.11907685 90.93763353 131.87829687 83.47900391 140.29248047 C81.08957875 143.05108719 78.858888 145.92758855 76.625 148.8125 C72.64569363 153.92742212 68.59892102 158.98042053 64.5 164 C60.36549764 169.06534488 56.27645622 174.16082673 52.25 179.3125 C46.39117268 186.80082352 40.51258563 194.26412965 34.125 201.3125 C30.35946313 205.50138125 26.88582119 209.8946019 23.43164062 214.33935547 C19.20850155 219.76640867 14.87508813 225.09872824 10.50317383 230.40649414 C9.98907959 231.03418701 9.47498535 231.66187988 8.9453125 232.30859375 C8.27266357 233.12541626 8.27266357 233.12541626 7.58642578 233.95874023 C7.06290527 234.63235596 6.53938477 235.30597168 6 236 C5.15489868 236.88131088 4.30979736 237.76262177 3.43908691 238.67063904 C-0.60966319 244.41904547 0.32449059 251.58130033 0.38818359 258.31103516 C0.38463953 259.87044409 0.37885862 261.4298493 0.37101746 262.98924255 C0.35886688 266.3374821 0.36227163 269.68521152 0.37784958 273.03343582 C0.40220945 278.32829347 0.39065467 283.62270629 0.37417603 288.91757202 C0.34970977 298.24363424 0.35547411 307.56949313 0.36798096 316.89556885 C0.38658405 330.94307143 0.38172293 344.99053587 0.34794676 359.03801 C0.33643395 364.30117681 0.3408694 369.56401904 0.35796714 374.82716775 C0.36586353 378.09970601 0.36161472 381.37214971 0.35425758 384.64468575 C0.35344727 386.16162686 0.35779819 387.67858087 0.36770058 389.19548988 C0.38056987 391.26712582 0.37504362 393.33794266 0.36508179 395.40957642 C0.36696692 396.5683964 0.36885204 397.72721638 0.3707943 398.92115211 C-0.04918147 402.40837271 -0.84649862 404.24064421 -3 407 C-6.13421346 409.21640913 -8.86916012 409.24747387 -12.644104 409.24050903 C-13.79392761 409.24325836 -14.94375122 409.24600769 -16.12841797 409.24884033 C-17.3857373 409.24164978 -18.64305664 409.23445923 -19.93847656 409.22705078 C-21.27895092 409.22648649 -22.6194259 409.22680357 -23.9598999 409.22793579 C-27.59596491 409.22850962 -31.23189797 409.21675042 -34.86793232 409.20278788 C-38.66892643 409.19028559 -42.46992356 409.18911041 -46.27093506 409.18673706 C-53.46735558 409.18052082 -60.66371533 409.16410805 -67.86010909 409.14403808 C-76.05350779 409.12168357 -84.24690938 409.11068678 -92.44033098 409.10064721 C-109.29358914 409.07974194 -126.14678814 409.04456316 -143 409 C-140.10950644 406.09097227 -137.24265255 403.2650807 -134.07421875 400.66015625 C-133.35943359 400.07169922 -132.64464844 399.48324219 -131.90820312 398.87695312 C-131.17537109 398.27818359 -130.44253906 397.67941406 -129.6875 397.0625 C-128.6056543 396.17014648 -128.6056543 396.17014648 -127.50195312 395.25976562 C-122.76422181 391.37185159 -117.93424328 387.63501208 -113 384 C-116.49074126 380.42599336 -120.11093301 377.08943411 -123.9375 373.875 C-124.49236084 373.40707031 -125.04722168 372.93914062 -125.61889648 372.45703125 C-133.22776091 366.08177827 -141.03299915 359.92168279 -149 354 C-147.70891619 351.23344582 -146.2935196 348.95037933 -144.34765625 346.6015625 C-143.82429687 345.96476562 -143.3009375 345.32796875 -142.76171875 344.671875 C-141.92060547 343.65867187 -141.92060547 343.65867187 -141.0625 342.625 C-139.87535508 341.18046525 -138.68917258 339.73513907 -137.50390625 338.2890625 C-136.91109863 337.5662207 -136.31829102 336.84337891 -135.70751953 336.09863281 C-133.26500456 333.0966513 -130.87877773 330.05256619 -128.5 327 C-124.01861146 321.25942578 -119.4404224 315.6030528 -114.8359375 309.9609375 C-111.34469917 305.67548382 -107.90181112 301.35670547 -104.5 297 C-100.02088732 291.26359254 -95.44655322 285.61017959 -90.84472656 279.97192383 C-87.26615682 275.57960734 -83.73867933 271.15148256 -80.25 266.6875 C-76.37306673 261.72850347 -72.43576991 256.82702555 -68.4375 251.96484375 C-60.91595501 242.81604143 -53.45398396 233.6248003 -46.16455078 224.28979492 C-42.12190685 219.12516765 -37.98265422 214.04212559 -33.8359375 208.9609375 C-30.34469885 204.67548342 -26.90182204 200.35669761 -23.5 196 C-17.92286935 188.8576846 -12.2077142 181.83021544 -6.47290039 174.81420898 C-5.7438147 173.91617554 -5.7438147 173.91617554 -5 173 C-4.32032543 172.28152799 -3.64065086 171.56305597 -2.9403801 170.82281208 C-0.51676996 167.29701011 -0.49372503 165.27445282 -0.48101807 161.02079773 C-0.47351681 160.33048881 -0.46601556 159.64017989 -0.458287 158.92895252 C-0.43803341 156.62249327 -0.44610729 154.31701928 -0.45410156 152.01049805 C-0.44536522 150.35459929 -0.43487923 148.69870898 -0.42277527 147.04283142 C-0.39490191 142.5514681 -0.39151088 138.06038005 -0.39249516 133.56894279 C-0.3893672 128.87368328 -0.36375144 124.17854796 -0.34051514 119.48335266 C-0.2999426 110.59411304 -0.27961148 101.70494679 -0.26654124 92.81562883 C-0.25067545 82.69472059 -0.21226159 72.5739373 -0.17194796 62.45310152 C-0.08953185 41.63544222 -0.03545042 20.81778877 0 0 Z " fill="#F96931" transform="translate(378,61)"/>
<path d="M0 0 C0.33 0 0.66 0 1 0 C1.0700643 20.51426305 1.12297554 41.02850639 1.15543652 61.5428648 C1.17090896 71.06792385 1.1920057 80.59290857 1.22631836 90.11791992 C1.25620915 98.41939732 1.27557226 106.72082089 1.28226548 115.02235061 C1.28617829 119.41843281 1.29538175 123.81436103 1.31719017 128.21039391 C1.33755026 132.34799781 1.34383478 136.48538428 1.33932304 140.62303352 C1.34014846 142.14158688 1.34611705 143.66014749 1.35761642 145.17865753 C1.37255359 147.2528507 1.36894984 149.32622406 1.36076355 151.4004364 C1.36352893 152.56097377 1.36629431 153.72151114 1.36914349 154.9172163 C0.951176 158.40773798 0.15586145 160.23876468 -2 163 C-5.13421346 165.21640913 -7.86916012 165.24747387 -11.644104 165.24050903 C-12.79392761 165.24325836 -13.94375122 165.24600769 -15.12841797 165.24884033 C-16.3857373 165.24164978 -17.64305664 165.23445923 -18.93847656 165.22705078 C-20.27895092 165.22648649 -21.6194259 165.22680357 -22.9598999 165.22793579 C-26.59596491 165.22850962 -30.23189797 165.21675042 -33.86793232 165.20278788 C-37.66892643 165.19028559 -41.46992356 165.18911041 -45.27093506 165.18673706 C-52.46735558 165.18052082 -59.66371533 165.16410805 -66.86010909 165.14403808 C-75.05350779 165.12168357 -83.24690938 165.11068678 -91.44033098 165.10064721 C-108.29358914 165.07974194 -125.14678814 165.04456316 -142 165 C-139.10950644 162.09097227 -136.24265255 159.2650807 -133.07421875 156.66015625 C-132.35943359 156.07169922 -131.64464844 155.48324219 -130.90820312 154.87695312 C-130.17537109 154.27818359 -129.44253906 153.67941406 -128.6875 153.0625 C-127.96626953 152.46759766 -127.24503906 151.87269531 -126.50195312 151.25976562 C-122.99556915 148.38232945 -119.46678353 145.60163242 -115.78125 142.95703125 C-112.12914476 140.23986495 -109.49205944 137.27971556 -106.8125 133.625 C-105.87259415 132.38688039 -104.93112213 131.14994852 -103.98828125 129.9140625 C-103.50311035 129.2737207 -103.01793945 128.63337891 -102.51806641 127.97363281 C-99.91651508 124.59136505 -97.20451786 121.300063 -94.5 118 C-90.44912656 113.0385573 -86.44192877 108.04843509 -82.5 103 C-78.0179989 97.25989332 -73.44043443 91.60306754 -68.8359375 85.9609375 C-65.34469917 81.67548382 -61.90181112 77.35670547 -58.5 73 C-54.0179989 67.25989332 -49.44043443 61.60306754 -44.8359375 55.9609375 C-41.34469917 51.67548382 -37.90181112 47.35670547 -34.5 43 C-30.02377581 37.26729183 -25.45267478 31.61728929 -20.85351562 25.98291016 C-16.73832338 20.93233521 -12.6912161 15.83227016 -8.68945312 10.69140625 C-5.86123241 7.06457718 -3.00841939 3.47848492 0 0 Z " fill="#F6EFEF" transform="translate(377,305)"/>
<path d="M0 0 C2.25866771 -0.00436177 4.51536056 -0.04068314 6.77368164 -0.07861328 C15.67556865 -0.14981605 22.20709798 0.20285895 29.20532227 6.33544922 C29.74415039 6.98642578 30.28297852 7.63740234 30.83813477 8.30810547 C31.39243164 8.95650391 31.94672852 9.60490234 32.51782227 10.27294922 C35.39856092 14.45391316 36.19712016 18.38647961 36.77563477 23.37060547 C37.53898519 28.47728658 37.53898519 28.47728658 40.46313477 32.55810547 C43.83042974 34.99939433 45.49146139 35.49190011 49.58422852 35.54638672 C73.02840488 36.06601522 73.02840488 36.06601522 80.31860352 42.42529297 C87.54219086 50.01964851 88.32528865 56.70932612 88.33813477 66.87060547 C88.36262695 67.89025391 88.38711914 68.90990234 88.41235352 69.96044922 C88.43614509 76.05902188 88.17795345 79.81564353 83.96313477 84.37060547 C80.54561031 86.59234381 77.66266409 86.62611002 73.63809204 86.63803101 C71.68655968 86.65082596 71.68655968 86.65082596 69.69560242 86.66387939 C68.25564563 86.66318038 66.81568894 86.66225733 65.37573242 86.66113281 C63.85779998 86.6671178 62.33987058 86.67392328 60.82194519 86.68148804 C56.69999355 86.69915818 52.57812494 86.70384384 48.45613909 86.70511961 C45.88043256 86.70654118 43.30474715 86.71081089 40.72904587 86.71611404 C31.7419577 86.7346176 22.75492886 86.74278424 13.76782227 86.74121094 C5.39260962 86.74000941 -2.98234536 86.76111307 -11.3574928 86.79269826 C-18.54997671 86.81885596 -25.74237644 86.82957845 -32.93490756 86.82830012 C-37.22982313 86.82779034 -41.52450973 86.83348228 -45.8193779 86.85465622 C-49.85945216 86.87403021 -53.89907882 86.87416909 -57.93916893 86.85962296 C-59.42021145 86.8575327 -60.90128193 86.86224876 -62.38227654 86.87434387 C-64.40741273 86.88980904 -66.43270171 86.8780836 -68.45785522 86.86508179 C-69.59015249 86.86617132 -70.72244976 86.86726086 -71.88905907 86.86838341 C-75.79906508 86.25007509 -77.95776391 84.81748666 -81.03686523 82.37060547 C-85.70038243 75.37532967 -84.77247741 62.87255197 -83.45092773 54.78466797 C-81.01063279 47.33863979 -76.56008573 42.48453776 -69.91186523 38.49560547 C-65.57577769 36.79887556 -61.54861581 36.2539601 -56.91186523 36.15966797 C-55.95795898 36.13130859 -55.00405273 36.10294922 -54.02124023 36.07373047 C-52.03184596 36.02165208 -50.04223201 35.97737921 -48.05249023 35.94091797 C-41.00636869 35.81414678 -41.00636869 35.81414678 -35.03686523 32.37060547 C-32.91900988 29.30201009 -32.65512256 26.27494238 -32.22436523 22.62060547 C-30.88475312 14.15013503 -27.3564223 9.06494847 -20.88061523 3.59716797 C-14.46489667 -0.67091599 -7.39988266 -0.00160049 0 0 Z " fill="#FC7E42" transform="translate(224.036865234375,-0.37060546875)"/>
<path d="M0 0 C0.33 0 0.66 0 1 0 C1.06846096 30.3109961 1.121541 60.6219842 1.15319599 90.93303996 C1.15694804 94.51281453 1.16083101 98.09258894 1.16479492 101.67236328 C1.16558185 102.38502173 1.16636878 103.09768018 1.16717956 103.83193433 C1.18022789 115.36607013 1.20387856 126.90016099 1.23145839 138.43427014 C1.25952856 150.27231588 1.27617967 162.11033811 1.28226548 173.94841576 C1.28600983 180.5964267 1.29537697 187.2443541 1.31719017 193.89233398 C1.33755626 200.14999178 1.34383347 206.40750577 1.33932304 212.66519356 C1.34014818 214.9613479 1.34611297 217.25750706 1.35761642 219.55363274 C1.37256214 222.69079794 1.36894569 225.82742163 1.36076355 228.96459961 C1.36950207 229.87123352 1.3782406 230.77786743 1.38724393 231.7119751 C1.33782296 238.7320142 0.23698566 244.36150409 -4.4375 249.875 C-9.44513181 254.02767028 -13.28605576 254.27703474 -19.703125 254.1953125 C-20.95980988 254.19106766 -20.95980988 254.19106766 -22.24188232 254.18673706 C-24.91140163 254.17556349 -27.5805825 254.15046421 -30.25 254.125 C-32.06249515 254.11496654 -33.87499556 254.10584133 -35.6875 254.09765625 C-40.12512993 254.0756334 -44.56250763 254.04112304 -49 254 C-48.09121094 253.33291016 -48.09121094 253.33291016 -47.1640625 252.65234375 C-43.28795013 249.69278503 -39.72138805 246.63850023 -38 242 C-37.82603564 239.35341195 -37.76188621 236.81659998 -37.79554749 234.17227173 C-37.79751631 233.37835569 -37.79948513 232.58443965 -37.80151361 231.76646554 C-37.81027428 229.10280796 -37.8331568 226.43945266 -37.85571289 223.77587891 C-37.86442204 221.86699856 -37.8720973 219.95811325 -37.8788147 218.04922485 C-37.89443812 213.93497657 -37.91530501 209.82079872 -37.93956184 205.70659256 C-37.97581401 199.19146464 -37.98737661 192.67644244 -37.99302673 186.16122437 C-37.99409127 185.06103836 -37.9951558 183.96085235 -37.9962526 182.82732737 C-37.99839208 180.5772464 -38.00047907 178.32716537 -38.00251472 176.0770843 C-38.01736098 160.91002111 -38.04882474 145.74343241 -38.1472168 130.57666016 C-38.21339924 120.34594546 -38.24031811 110.11594091 -38.22266573 99.8850168 C-38.21490638 94.47480277 -38.22692631 89.06628054 -38.28709602 83.65636063 C-38.34351241 78.5584687 -38.34794353 73.4630828 -38.31399918 68.36501694 C-38.31062438 66.50348785 -38.32576521 64.64180929 -38.36171913 62.78062439 C-38.57871185 50.86105981 -36.94386541 43.67859061 -28.7050848 34.80356407 C-27.36606782 33.41579986 -27.36606782 33.41579986 -26 32 C-24.80662458 30.55496838 -23.62441864 29.10036141 -22.46875 27.625 C-21.48012797 26.41588003 -20.49056734 25.20752679 -19.5 24 C-14.73601605 18.16880891 -10.04507377 12.28636962 -5.42578125 6.33984375 C-3.69497788 4.11829431 -1.9937031 1.9937031 0 0 Z " fill="#067195" transform="translate(415,258)"/>
<path d="M0 0 C25 0 25 0 31 3 C37.62490833 9.77547442 38.3054745 16.02955617 38.43334961 25.06591797 C38.4651104 26.56486855 38.4651104 26.56486855 38.49751282 28.09410095 C38.7026383 38.53953276 38.78827472 48.98753305 38.86499023 59.43457031 C38.90499096 64.37818973 38.98143998 69.31915093 39.09057617 74.26171875 C39.22263596 80.25367019 39.28940239 86.24315026 39.3112812 92.23648453 C39.33011316 94.50666953 39.37105707 96.77679391 39.43562126 99.04613876 C39.78680051 112.08090601 39.18004688 121.09052819 30.0397253 130.93540764 C28.91779523 132.07709336 27.78497241 133.2081936 26.64067268 134.32745743 C24.00204146 137.01734378 21.76965794 139.99924622 19.5 143 C18.61913672 144.12912752 17.73654943 145.2569141 16.8515625 146.3828125 C16.39942383 146.95805664 15.94728516 147.53330078 15.48144531 148.12597656 C12.63484134 151.7269212 9.75902884 155.30399612 6.875 158.875 C6.30587891 159.58398438 5.73675781 160.29296875 5.15039062 161.0234375 C3.79029246 162.70150231 2.39832511 164.35365392 1 166 C0.67 166 0.34 166 0 166 C0 111.22 0 56.44 0 0 Z " fill="#077296" transform="translate(378,61)"/>
<path d="M0 0 C3.16634636 -0.11760715 6.33212074 -0.18771024 9.5 -0.25 C10.386875 -0.28351562 11.27375 -0.31703125 12.1875 -0.3515625 C19.47389132 -0.45871531 24.72119127 1.1267582 30.2421875 5.96484375 C30.78101563 6.61582031 31.31984375 7.26679687 31.875 7.9375 C32.70644531 8.91009766 32.70644531 8.91009766 33.5546875 9.90234375 C36.43542616 14.08330769 37.23398539 18.01587414 37.8125 23 C38.57585042 28.10668111 38.57585042 28.10668111 41.5 32.1875 C44.86729498 34.62878886 46.52832663 35.12129465 50.62109375 35.17578125 C74.06527011 35.69540975 74.06527011 35.69540975 81.35546875 42.0546875 C88.57905609 49.64904304 89.36215388 56.33872065 89.375 66.5 C89.39949219 67.51964844 89.42398438 68.53929688 89.44921875 69.58984375 C89.47301032 75.68841642 89.21481868 79.44503806 85 84 C81.48369988 86.32921159 78.41552002 86.23171509 74.265625 86.1953125 C72.97011719 86.18886719 71.67460937 86.18242188 70.33984375 86.17578125 C68.97655981 86.15907193 67.61327856 86.14214206 66.25 86.125 C64.87110015 86.1149634 63.49219335 86.10583873 62.11328125 86.09765625 C58.74201118 86.07408093 55.37109364 86.0411727 52 86 C51.97421875 84.96101563 51.9484375 83.92203125 51.921875 82.8515625 C51.5551382 72.56687959 51.07686101 63.43491403 43.125 56 C35.89067635 49.90793798 27.44859171 50.65501194 18.49804688 50.609375 C12.14695357 50.46022995 8.10100832 49.91144511 3 46 C-0.70264205 41.44436206 -0.39240202 37.13642184 -0.29296875 31.54296875 C-0.28872391 30.64000565 -0.28447906 29.73704254 -0.28010559 28.80671692 C-0.26336311 25.9333365 -0.22571916 23.06066709 -0.1875 20.1875 C-0.17244743 18.2350362 -0.15876003 16.28256136 -0.14648438 14.33007812 C-0.11347408 9.55311303 -0.06172235 4.77667691 0 0 Z " fill="#FA6931" transform="translate(223,0)"/>
<path d="M0 0 C6.12326702 0.12708667 11.7118587 2.11120811 16.3984375 6.078125 C21.51236066 11.55886966 24.32750007 17.17492321 24.75 24.6875 C24.22443524 35.68681957 17.77547702 42.72576862 10.81787109 50.57421875 C8.29464765 53.48783388 5.92890379 56.52115669 3.5625 59.5625 C2.87921631 60.43817627 2.87921631 60.43817627 2.18212891 61.33154297 C0.89008514 62.99019064 -0.398918 64.65116239 -1.6875 66.3125 C-2.42871094 67.26382813 -3.16992188 68.21515625 -3.93359375 69.1953125 C-5.52059833 71.23255379 -7.10540989 73.27144177 -8.6875 75.3125 C-13.46204447 72.25472846 -17.81878926 68.8586557 -22.1875 65.25 C-28.16499102 60.34206238 -34.19498967 55.51754724 -40.34570312 50.82788086 C-42.9944762 48.77963774 -44.80963695 47.12929457 -46.6875 44.3125 C-45.98625 43.42949219 -45.285 42.54648438 -44.5625 41.63671875 C-40.16448356 36.07923941 -35.79186715 30.53031707 -31.6875 24.75 C-16.60287568 3.8849971 -16.60287568 3.8849971 -6.1875 0.5 C-4.1240722 0.34524292 -2.06183242 0.17473156 0 0 Z " fill="#FEC2AA" transform="translate(450.6875,150.6875)"/>
<path d="M0 0 C3.30453863 2.16940287 6.5438424 4.33094615 9.59375 6.84765625 C10.22522949 7.36537598 10.85670898 7.8830957 11.50732422 8.41650391 C12.16490723 8.95968262 12.82249023 9.50286133 13.5 10.0625 C19.47749102 14.97043762 25.50748967 19.79495276 31.65820312 24.48461914 C34.3069762 26.53286226 36.12213695 28.18320543 38 31 C34.33644188 34.00380719 30.66894567 37.00277779 27 40 C26.32582031 40.55107422 25.65164062 41.10214844 24.95703125 41.66992188 C22.805897 43.42726925 20.6531217 45.18258847 18.5 46.9375 C17.45875977 47.7886438 17.45875977 47.7886438 16.39648438 48.65698242 C15.73970703 49.19170166 15.08292969 49.7264209 14.40625 50.27734375 C13.52936523 50.99265259 13.52936523 50.99265259 12.63476562 51.72241211 C11.14385849 52.88757295 9.57440183 53.95039878 8 55 C51.89 55.33 95.78 55.66 141 56 C141 56.33 141 56.66 141 57 C140.31384109 56.99317042 139.62768219 56.98634085 138.92073059 56.97930431 C122.15776622 56.81698279 105.39611722 56.72761823 88.63240051 56.71759319 C80.52513285 56.71101962 72.4193216 56.68053926 64.3125 56.59204102 C57.23925976 56.51488844 50.16754503 56.48436079 43.09389782 56.50781661 C39.35412763 56.51864194 35.61757632 56.50748828 31.87832642 56.44031334 C10.84482485 55.88608763 10.84482485 55.88608763 -6.73210144 66.36337566 C-8.18493507 67.88056288 -9.59646514 69.43709486 -11 71 C-14.49981536 72.74990768 -18.18122006 72.551032 -22 72 C-24.94214318 70.69913504 -25.83163498 69.60203803 -28 67 C-29.04033973 63.57800201 -29.65555806 60.31111611 -28 57 C-66.61 57 -105.22 57 -145 57 C-145 56.67 -145 56.34 -145 56 C-106.06 56 -67.12 56 -27 56 C-26.01 53.03 -26.01 53.03 -25 50 C-24.19467327 48.22652928 -23.35262178 46.4693585 -22.47802734 44.72900391 C-21.97765961 43.72841949 -21.47729187 42.72783508 -20.96176147 41.69692993 C-20.42523956 40.63420868 -19.88871765 39.57148743 -19.3359375 38.4765625 C-18.78386627 37.37524994 -18.23179504 36.27393738 -17.66299438 35.13925171 C-15.90408506 31.63260103 -14.13962385 28.12877791 -12.375 24.625 C-11.17886846 22.24389985 -9.98400377 19.86216676 -8.7890625 17.48046875 C-5.8635826 11.65152451 -2.93354311 5.82489004 0 0 Z " fill="#587D87" transform="translate(228,414)"/>
<path d="M0 0 C1.09485214 -0.00540298 2.18970428 -0.01080597 3.31773376 -0.01637268 C6.9354051 -0.02887595 10.55228314 -0.01235732 14.16992188 0.00561523 C16.68428591 0.00546028 19.19865018 0.00397198 21.7130127 0.00120544 C26.98210313 -0.00017927 32.25098812 0.01195768 37.52001953 0.03515625 C43.6055216 0.0617647 49.69064235 0.06351232 55.77618265 0.05176789 C61.63830881 0.04097601 67.50029604 0.04728968 73.3624115 0.06132317 C75.85350646 0.06584109 78.34461263 0.0661715 80.83570862 0.06225777 C84.31648792 0.05934914 87.79664326 0.07583694 91.27734375 0.09765625 C92.3081456 0.0931546 93.33894745 0.08865295 94.40098572 0.08401489 C103.44111323 0.1782223 103.44111323 0.1782223 107.13867188 3.50170898 C108.08151941 6.95881662 108.47929503 9.35597657 107.45117188 12.81420898 C105.84165944 14.88358212 104.5578709 15.50602934 102.13867188 16.50170898 C99.89568424 16.75897789 99.89568424 16.75897789 97.40138245 16.76913452 C96.45231018 16.77766449 95.50323792 16.78619446 94.52540588 16.79498291 C92.9738102 16.79362335 92.9738102 16.79362335 91.39086914 16.79223633 C90.29616302 16.79895355 89.20145691 16.80567078 88.07357788 16.81259155 C84.45069861 16.83160754 80.82800421 16.83549743 77.20507812 16.83764648 C74.6892845 16.8440713 72.17349163 16.85079942 69.65769958 16.8578186 C64.38270873 16.86979995 59.10776487 16.87358407 53.83276367 16.87231445 C47.73986447 16.87111267 41.6473193 16.89222349 35.5545097 16.92380178 C29.68760536 16.95312318 23.82084102 16.96029014 17.95387077 16.959095 C15.45996593 16.96145764 12.96605855 16.97031825 10.47220039 16.98575974 C6.98645637 17.00532364 3.50162745 16.99961892 0.01586914 16.98754883 C-1.5326902 17.00440735 -1.5326902 17.00440735 -3.11253357 17.02160645 C-7.56044578 16.98240722 -10.13443848 16.94302462 -13.99964905 14.59634399 C-15.99808765 12.34783644 -16.54426895 11.46827933 -16.48632812 8.50170898 C-16.49921875 7.84170898 -16.51210937 7.18170898 -16.52539062 6.50170898 C-14.06062993 -0.92157028 -6.38645448 -0.05989904 0 0 Z " fill="#7C727D" transform="translate(228.861328125,171.498291015625)"/>
<path d="M0 0 C1.09485214 -0.00540298 2.18970428 -0.01080597 3.31773376 -0.01637268 C6.9354051 -0.02887595 10.55228314 -0.01235732 14.16992188 0.00561523 C16.68428591 0.00546028 19.19865018 0.00397198 21.7130127 0.00120544 C26.98210313 -0.00017927 32.25098812 0.01195768 37.52001953 0.03515625 C43.6055216 0.0617647 49.69064235 0.06351232 55.77618265 0.05176789 C61.63830881 0.04097601 67.50029604 0.04728968 73.3624115 0.06132317 C75.85350646 0.06584109 78.34461263 0.0661715 80.83570862 0.06225777 C84.31648792 0.05934914 87.79664326 0.07583694 91.27734375 0.09765625 C92.3081456 0.0931546 93.33894745 0.08865295 94.40098572 0.08401489 C103.44111323 0.1782223 103.44111323 0.1782223 107.13867188 3.50170898 C108.08151941 6.95881662 108.47929503 9.35597657 107.45117188 12.81420898 C105.84165944 14.88358212 104.5578709 15.50602934 102.13867188 16.50170898 C99.89568424 16.75897789 99.89568424 16.75897789 97.40138245 16.76913452 C96.45231018 16.77766449 95.50323792 16.78619446 94.52540588 16.79498291 C92.9738102 16.79362335 92.9738102 16.79362335 91.39086914 16.79223633 C90.29616302 16.79895355 89.20145691 16.80567078 88.07357788 16.81259155 C84.45069861 16.83160754 80.82800421 16.83549743 77.20507812 16.83764648 C74.6892845 16.8440713 72.17349163 16.85079942 69.65769958 16.8578186 C64.38270873 16.86979995 59.10776487 16.87358407 53.83276367 16.87231445 C47.73986447 16.87111267 41.6473193 16.89222349 35.5545097 16.92380178 C29.68760536 16.95312318 23.82084102 16.96029014 17.95387077 16.959095 C15.45996593 16.96145764 12.96605855 16.97031825 10.47220039 16.98575974 C6.98645637 17.00532364 3.50162745 16.99961892 0.01586914 16.98754883 C-1.5326902 17.00440735 -1.5326902 17.00440735 -3.11253357 17.02160645 C-7.56044578 16.98240722 -10.13443848 16.94302462 -13.99964905 14.59634399 C-15.99808765 12.34783644 -16.54426895 11.46827933 -16.48632812 8.50170898 C-16.49921875 7.84170898 -16.51210937 7.18170898 -16.52539062 6.50170898 C-14.06062993 -0.92157028 -6.38645448 -0.05989904 0 0 Z " fill="#7C727D" transform="translate(228.861328125,247.498291015625)"/>
<path d="M0 0 C1.11421326 -0.00861557 2.22842651 -0.01723114 3.37640381 -0.02610779 C7.06440372 -0.04883497 10.7516479 -0.04201583 14.43969727 -0.03295898 C17.00033292 -0.0381917 19.56096663 -0.04446688 22.12159729 -0.05174255 C27.49083522 -0.06215944 32.85979813 -0.05789544 38.22900391 -0.04296875 C44.43107865 -0.02604932 50.63244948 -0.04187891 56.83444732 -0.07419163 C62.80602576 -0.10412256 68.77738548 -0.10606908 74.7490406 -0.09669304 C77.28759743 -0.09587202 79.82616876 -0.10276395 82.36468315 -0.11746407 C85.91291656 -0.13485961 89.45964019 -0.12040628 93.0078125 -0.09765625 C94.05888687 -0.10934845 95.10996124 -0.12104065 96.19288635 -0.13308716 C100.9550439 -0.07088122 103.31887848 -0.00991295 107.25990295 2.84632874 C109.06860352 5.53344727 109.06860352 5.53344727 109.06860352 9.15844727 C108.08195825 12.48837502 107.73501501 13.51350541 105.06860352 15.53344727 C102.89901829 15.913764 102.89901829 15.913764 100.33094788 15.92112732 C99.35656265 15.93103195 98.38217743 15.94093658 97.37826538 15.95114136 C96.31064972 15.94663971 95.24303406 15.94213806 94.14306641 15.9375 C92.45492577 15.94779488 92.45492577 15.94779488 90.73268127 15.95829773 C87.00208011 15.97664099 83.27189647 15.97271734 79.54125977 15.96704102 C76.9543799 15.97159922 74.36750126 15.9769037 71.78062439 15.98292542 C66.35418202 15.99187138 60.92790074 15.98964935 55.50146484 15.97949219 C49.22962142 15.96801199 42.95820565 15.9820829 36.68641859 16.00888866 C30.65236174 16.03371251 24.61852505 16.03622455 18.58440971 16.0297718 C16.01711758 16.02961813 13.44981738 16.03570005 10.88255501 16.04806328 C7.29588925 16.06290074 3.71017078 16.05234831 0.12353516 16.03515625 C-1.47485199 16.0496582 -1.47485199 16.0496582 -3.10552979 16.06445312 C-10.25785294 15.99247547 -10.25785294 15.99247547 -13.59107971 13.72084045 C-15.57665029 10.48039487 -15.46259371 8.25182785 -14.93139648 4.53344727 C-11.48751354 -1.04970116 -5.85948524 -0.03631027 0 0 Z " fill="#786E79" transform="translate(227.931396484375,137.466552734375)"/>
<path d="M0 0 C2.4375 1.625 2.4375 1.625 4 4 C4.69616117 9.35508593 2.9012577 12.41917122 -0.125 16.625 C-0.78193848 17.57149414 -0.78193848 17.57149414 -1.45214844 18.53710938 C-2.42268235 19.93162394 -3.39959019 21.32171771 -4.38183594 22.70800781 C-6.13090901 25.18542151 -7.85189333 27.6809234 -9.5703125 30.1796875 C-10.79606962 31.95368175 -12.02262487 33.72712481 -13.25 35.5 C-13.82766113 36.33611816 -14.40532227 37.17223633 -15.00048828 38.03369141 C-25.31220149 52.78118603 -25.31220149 52.78118603 -31 54 C-37.39288933 54.6088466 -39.72593723 53.92291055 -45 50 C-47.25274963 48.08762809 -49.41340695 46.09008956 -51.5625 44.0625 C-52.11357422 43.55009766 -52.66464844 43.03769531 -53.23242188 42.50976562 C-54.31584857 41.49831034 -55.39438009 40.48158167 -56.4675293 39.45922852 C-57.92183677 38.07442754 -59.39405342 36.70850637 -60.8671875 35.34375 C-63 33 -63 33 -63.5625 29.4375 C-63 26 -63 26 -61.375 23.5625 C-58.27466087 21.52280321 -56.67014418 21.59120793 -53 22 C-50.25390625 23.7578125 -50.25390625 23.7578125 -47.5625 26.125 C-46.61890625 26.94097656 -45.6753125 27.75695312 -44.703125 28.59765625 C-43.36507812 29.78681641 -43.36507812 29.78681641 -42 31 C-40.6060273 32.1896836 -39.21052873 33.3775854 -37.8125 34.5625 C-36.884375 35.366875 -35.95625 36.17125 -35 37 C-31.41861829 32.62950028 -28.11271629 28.08323149 -24.8125 23.5 C-24.24168701 22.70988525 -23.67087402 21.91977051 -23.08276367 21.10571289 C-18.85727475 15.23938411 -14.74310407 9.30654241 -10.70703125 3.30859375 C-7.71096427 -0.74329546 -4.8499006 -0.41809488 0 0 Z " fill="#FAA718" transform="translate(179,247)"/>
<path d="M0 0 C3.8398907 0.62692093 5.47091039 1.60351749 8.0625 4.5 C8.53938704 9.02113689 7.89562598 11.51483511 5.375 15.25 C4.74207031 16.19230469 4.10914063 17.13460937 3.45703125 18.10546875 C-0.57571458 23.86427892 -4.70083598 29.55740927 -8.84765625 35.234375 C-11.26279388 38.5476442 -13.5875888 41.90940271 -15.875 45.3125 C-22.00337338 53.96695899 -22.00337338 53.96695899 -27.32421875 54.93359375 C-34.58148099 55.2915753 -38.24616203 52.82468097 -43.71875 48.09765625 C-44.6159375 47.26105469 -45.513125 46.42445313 -46.4375 45.5625 C-49.42551312 42.79838433 -52.39794648 40.06068944 -55.5625 37.5 C-58.64278132 34.90607889 -58.864633 34.15580298 -59.3125 30.125 C-58.9375 26.5 -58.9375 26.5 -56.875 24 C-52.93090011 21.98599154 -51.20643259 22.36751633 -46.9375 23.5 C-44.24443517 25.39955006 -41.9909894 27.65163743 -39.6875 30 C-38.47792383 31.20192063 -37.26453402 32.40001878 -36.046875 33.59375 C-35.52061523 34.12677734 -34.99435547 34.65980469 -34.45214844 35.20898438 C-32.85106656 36.73699582 -32.85106656 36.73699582 -29.9375 37.5 C-29.28265625 36.54222656 -28.6278125 35.58445313 -27.953125 34.59765625 C-22.83587691 27.12509023 -17.6923823 19.67057751 -12.5 12.25 C-12.00467773 11.53593994 -11.50935547 10.82187988 -10.99902344 10.08618164 C-4.4449657 0.75658991 -4.4449657 0.75658991 0 0 Z " fill="#FAA718" transform="translate(174.9375,133.5)"/>
<path d="M0 0 C3.125 0.5 3.125 0.5 6.0625 2.5625 C8.125 5.5 8.125 5.5 8.1171875 8.62890625 C6.81515086 13.70889961 4.35844124 17.16336036 1.3125 21.375 C0.73371094 22.19564941 0.15492188 23.01629883 -0.44140625 23.86181641 C-1.64528984 25.56655483 -2.85450033 27.26754314 -4.06884766 28.96484375 C-5.81101528 31.4101896 -7.52520995 33.87256558 -9.23046875 36.34375 C-10.27825519 37.85443768 -11.32641582 39.36486593 -12.375 40.875 C-12.85428955 41.56964355 -13.3335791 42.26428711 -13.82739258 42.97998047 C-20.3184998 52.2217499 -20.3184998 52.2217499 -24.875 54.5 C-29.69645571 55.31194653 -34.04100903 55.51478944 -38.40234375 53.1015625 C-41.02683311 51.01728408 -43.44626631 48.80981943 -45.875 46.5 C-46.95798182 45.52664926 -48.04406231 44.55673791 -49.1328125 43.58984375 C-58.74546588 34.98964234 -58.74546588 34.98964234 -59.125 30.625 C-58.875 27.5 -58.875 27.5 -57.875 25.125 C-55.41519982 23.12641235 -53.42423236 22.64095365 -50.26171875 22.78125 C-43.84636918 24.7132047 -38.71380466 30.5975138 -34.16796875 35.30078125 C-32.16395577 37.73073302 -32.16395577 37.73073302 -29.875 37.5 C-28.19633546 35.4821524 -28.19633546 35.4821524 -26.4609375 32.85546875 C-25.44193359 31.37336914 -25.44193359 31.37336914 -24.40234375 29.86132812 C-23.69207031 28.81396484 -22.98179687 27.76660156 -22.25 26.6875 C-4.54195945 0.78990599 -4.54195945 0.78990599 0 0 Z " fill="#FAA718" transform="translate(174.875,357.5)"/>
<path d="M0 0 C1.81207947 -0.01902626 1.81207947 -0.01902626 3.6607666 -0.03843689 C5.61242737 -0.03403343 5.61242737 -0.03403343 7.60351562 -0.02954102 C8.95585391 -0.0341037 10.30818986 -0.03940953 11.66052246 -0.04542542 C14.4917138 -0.0543511 17.32262298 -0.0519394 20.15380859 -0.04199219 C23.7789899 -0.0304953 27.40319817 -0.05072602 31.02825165 -0.07990932 C33.8198666 -0.09826854 36.61124815 -0.09797969 39.40290833 -0.0922718 C41.38822574 -0.0920442 43.37352121 -0.10894245 45.35876465 -0.12608337 C46.56681763 -0.11670242 47.77487061 -0.10732147 49.01953125 -0.09765625 C50.61359802 -0.097407 50.61359802 -0.097407 52.23986816 -0.09715271 C55.71681438 0.53199129 56.89408249 1.61748967 59.00976562 4.40405273 C59.57226562 7.90405273 59.57226562 7.90405273 59.00976562 11.40405273 C56.45198884 13.99380196 54.7664987 15.26928922 51.15757751 15.9119873 C49.593489 15.91676086 49.593489 15.91676086 47.99780273 15.92163086 C46.80984604 15.9342395 45.62188934 15.94684814 44.39793396 15.95983887 C43.12386185 15.95174194 41.84978973 15.94364502 40.53710938 15.93530273 C39.22190811 15.93912964 37.90670685 15.94295654 36.551651 15.94689941 C33.77341843 15.95278374 30.99570172 15.94426565 28.2175293 15.92553711 C24.66070824 15.90272457 21.10509305 15.91588994 17.548316 15.93982697 C14.14865089 15.9577722 10.74930873 15.9452022 7.34960938 15.93530273 C6.07351303 15.94339966 4.79741669 15.95149658 3.48265076 15.95983887 C2.29784622 15.94723022 1.11304169 15.93462158 -0.10766602 15.92163086 C-1.1495961 15.91844849 -2.19152618 15.91526611 -3.26502991 15.9119873 C-6.67524517 15.27637767 -7.85904216 14.08457564 -9.99023438 11.40405273 C-10.76268405 8.44488892 -10.3880358 6.53673895 -9.99023438 3.40405273 C-6.90726303 0.20203163 -4.32769418 0.02200265 0 0 Z " fill="#786E79" transform="translate(222.990234375,282.595947265625)"/>
</svg>
